<?xml version="1.0" encoding="utf-8" ?><svg xmlns="http://www.w3.org/2000/svg" xmlns:xlink="http://www.w3.org/1999/xlink" width="1024" height="1024" viewBox="0 0 1024 1024"><path fill="#002D5A" d="M352.566 118.15C365.345 117.795 375.43 118.048 386.232 125.398C401.699 135.922 406.622 151.504 406.883 169.415C407.088 183.552 406.819 197.599 406.803 211.634L406.919 264.244C406.861 271.752 405.583 282.42 407.182 289.449C416.43 284.244 422.549 279.556 432.695 274.636C460.612 261.098 490.901 256.054 521.664 256.243C575.121 256.548 626.234 278.23 663.606 316.455C700.997 354.425 720.605 404.765 719.984 457.871C719.317 514.878 697.759 563.652 657.316 603.441C627.676 630.501 597.661 647.339 558.051 655.323C447.082 677.691 339.143 606.869 316.935 495.585C310.71 464.396 312.895 432.646 313.023 400.869L313.058 297.786L313.025 207.941C313.007 191.489 312.302 175.831 313.496 159.377C315.044 138.047 331.812 121.921 352.566 118.15ZM666.674 533.183C687.134 488.641 692.358 445.524 674.851 398.497C659.596 357.25 628.565 323.762 588.597 305.415C548.127 286.652 501.836 284.84 460.023 300.382C435.608 309.546 413.614 324.175 395.726 343.151C391.797 347.276 388.091 351.609 384.624 356.129C382.55 358.821 375.74 369.397 372.665 368.604C371.608 364.311 372.09 339.556 372.094 333.716L372.663 209.705L372.514 179.362C372.475 173.609 372.577 167.428 371.928 161.717C371.602 158.851 369.907 156.985 367.998 154.897C363.322 153.174 361.189 152.759 356.123 153.109C352.924 154.139 350.957 155.192 349.203 158.259C347.923 160.498 347.535 165.442 347.512 168.12C347.374 184.408 347.466 200.788 347.513 217.077L347.965 319.276L348.493 411.264C348.629 445.839 346.25 477.022 357.439 510.334C371.034 550.813 401.443 586.713 439.651 605.696C481.018 626.472 528.98 629.823 572.835 615.002C613.467 600.802 647.072 571.502 666.674 533.183Z"/><path fill="#002D5A" d="M509.052 312.732C589.103 307.721 658.035 368.606 662.948 448.663C667.862 528.719 606.893 597.577 526.83 602.393C446.905 607.201 378.191 546.36 373.286 466.44C368.381 386.521 429.139 317.734 509.052 312.732ZM527.263 568.414C588.415 563.606 634.064 510.094 629.176 448.949C624.288 387.803 570.717 342.224 509.578 347.191C448.552 352.149 403.074 405.601 407.953 466.634C412.832 527.667 466.224 573.214 527.263 568.414Z"/><path fill="#FE7C19" d="M512.108 380.228C517.933 379.777 524.361 379.791 530.128 380.763C549.425 384.043 566.609 394.907 577.847 410.934C595.239 435.882 596.405 467.043 580.971 492.904C568.267 514.193 543.736 543.069 523.542 557.055C521.915 557.893 520.206 558.592 518.525 559.325C508.368 556.792 498.325 545.828 491.048 538.417C470.022 517.001 447.402 489.099 444.789 458.177C441.488 419.115 473.395 383.556 512.108 380.228ZM522.754 486.597C541.211 484.317 554.34 467.528 552.104 449.065C549.868 430.603 533.11 417.434 514.642 419.626C496.112 421.826 482.889 438.653 485.133 457.178C487.377 475.702 504.235 488.885 522.754 486.597Z"/></svg>